<mxfile host="app.diagrams.net" modified="2024-07-22T01:37:53.358Z" agent="Mozilla/5.0 (Windows NT 10.0; Win64; x64) AppleWebKit/537.36 (KHTML, like Gecko) Chrome/126.0.0.0 Safari/537.36 Edg/126.0.0.0" version="24.7.1" etag="0MrJJU9JhsdkdG2zX-81" type="github">
  <diagram name="第 1 页" id="pTm7-aRh6tZhciBY1CMp">
    <mxGraphModel>
      <root>
        <mxCell id="0" />
        <mxCell id="1" parent="0" />
      </root>
    </mxGraphModel>
  </diagram>
</mxfile>
